# xmcd CD database file
#
# Track frame offsets:
#        150
#        14640
#        29563
#        49224
#        65279
#        79443
#        100410
#        116463
#        131550
#        147034
#        159596
#        180000
#
# Disc length: 2625 seconds
#
# Revision: 0
# Processed by: cddbd v1.5.2PL0 Copyright (c) Steve Scherf et al.
# Submitted via: CUERipper 2.1.5
#
DISCID=9f0a3f0c
DTITLE=Emma Stevens - Waves
DYEAR=2014
DGENRE=
TTITLE0=So Stop the World
TTITLE1=Make My Day
TTITLE2=Helium
TTITLE3=Bad Habit
TTITLE4=Gold Rush
TTITLE5=Nothing Serious
TTITLE6=Shooting For the Moon
TTITLE7=Yes
TTITLE8=Amaretto Kisses
TTITLE9=Anywhere
TTITLE10=Singer of My Song
TTITLE11=Walking
EXTD=
EXTT0=
EXTT1=
EXTT2=
EXTT3=
EXTT4=
EXTT5=
EXTT6=
EXTT7=
EXTT8=
EXTT9=
EXTT10=
EXTT11=
PLAYORDER=
